<svg xmlns="http://www.w3.org/2000/svg" version="1.1" xmlns:xlink="http://www.w3.org/1999/xlink" xmlns:svgjs="http://svgjs.dev/svgjs" width="2000" height="1999" viewBox="0 0 2000 1999"><g transform="matrix(1,0,0,1,-0.431486880466764,-0.4312711370263287)"><svg viewBox="0 0 343 343" data-background-color="#ea3c12" preserveAspectRatio="xMidYMid meet" height="1999" width="2000" xmlns="http://www.w3.org/2000/svg" xmlns:xlink="http://www.w3.org/1999/xlink"><g id="tight-bounds" transform="matrix(1,0,0,1,0.0740000000000407,0.07400000000001228)"><svg viewBox="0 0 342.85155851775386 342.85155851775386" height="342.85155851775386" width="342.85155851775386"><g><svg></svg></g><g><svg viewBox="0 0 342.85155851775386 342.85155851775386" height="342.85155851775386" width="342.85155851775386"><g><path d="M0 171.426c0-94.676 76.75-171.426 171.426-171.426 94.676 0 171.426 76.75 171.426 171.426 0 94.676-76.75 171.426-171.426 171.426-94.676 0-171.426-76.75-171.426-171.426zM171.426 339.197c92.658 0 167.772-75.114 167.771-167.771 0-92.658-75.114-167.772-167.771-167.772-92.658 0-167.772 75.114-167.772 167.772 0 92.658 75.114 167.772 167.772 167.771z" data-fill-palette-color="tertiary" fill="#000000" stroke="transparent"></path><ellipse rx="164.56874808852186" ry="164.56874808852186" cx="171.42577925887693" cy="171.42577925887693" fill="#000000" stroke="transparent" stroke-width="0" fill-opacity="1" data-fill-palette-color="tertiary"></ellipse></g><g transform="matrix(1,0,0,1,64.84655864529837,118.38324283578945)"><svg viewBox="0 0 213.1584412271571 106.08507284617495" height="106.08507284617495" width="213.1584412271571"><g><svg viewBox="0 0 213.1584412271571 106.08507284617495" height="106.08507284617495" width="213.1584412271571"><g><svg viewBox="0 0 213.1584412271571 106.08507284617495" height="106.08507284617495" width="213.1584412271571"><g transform="matrix(1,0,0,1,0,65.56483094098391)"><svg viewBox="0 0 213.1584412271571 40.52024190519104" height="40.52024190519104" width="213.1584412271571"><g id="textblocktransform"><svg viewBox="0 0 213.1584412271571 40.52024190519104" height="40.52024190519104" width="213.1584412271571" id="textblock"><g><svg viewBox="0 0 213.1584412271571 40.52024190519104" height="40.52024190519104" width="213.1584412271571"><g transform="matrix(1,0,0,1,0,0)"><svg width="213.1584412271571" viewBox="1.2 -32.7 174.64000000000001 33.2" height="40.52024190519104" data-palette-color="#ea3c12"><path d="M17.1-32.7Q21.7-32.7 25.45-31.05L25.45-31.05 24-24.4 23.45-24.1Q22.05-25.05 20.28-25.58 18.5-26.1 16.8-26.1L16.8-26.1Q13.2-26.1 11.48-23.85 9.75-21.6 9.75-16.75L9.75-16.75Q9.75-6.25 17.2-6.25L17.2-6.25Q18.85-6.25 20.7-6.7 22.55-7.15 24.05-7.95L24.05-7.95 24.75-7.55 24.1-0.9Q20.6 0.5 16.55 0.5L16.55 0.5Q9 0.5 5.1-3.7 1.2-7.9 1.2-15.85L1.2-15.85Q1.2-23.9 5.35-28.3 9.5-32.7 17.1-32.7L17.1-32.7ZM43.55-25.4L51.25 0 43.65 0 42.95-4.05 42.85-4.45 38.2-4.55 34.2-4.45 33.45 0 26.1 0 34.55-25.4 43.55-25.4ZM38.65-10L41.4-10.05 39.15-18.65 38.7-18.65 35.95-10.05 38.65-10ZM82.5-25.4L84.75 0 78 0 77.8-7.7 77.15-14.35 76.75-14.35 71.95-2.4 66.2-2.4 62.09-14.35 61.59-14.35 60.95-8.4 60.5 0 54.09 0 56.7-25.4 65.59-25.4 66.45-21.75 69.25-12.3 69.75-12.3 72.8-21.55 73.84-25.4 82.5-25.4ZM101.99-25.45Q106.39-25.45 108.79-23.35 111.19-21.25 111.19-17.4L111.19-17.4Q111.19-14.4 109.72-12.13 108.24-9.85 105.59-8.6 102.94-7.35 99.44-7.35L99.44-7.35 97.19-7.35 97.44 0 89.94 0 90.29-7.45 89.94-25.4 101.99-25.45ZM100.59-12.65Q101.99-13.2 102.64-14.15 103.29-15.1 103.29-16.65L103.29-16.65Q103.29-18.4 102.37-19.23 101.44-20.05 99.39-20.15L99.39-20.15 97.44-20 97.24-12.8 100.59-12.65ZM122.94-25.4L122.49-8.2 122.79 0 115.29 0 115.64-7.45 115.29-25.4 122.94-25.4ZM141.24-5.8L148.14-6.05 148.59-5.55 148.09 0 129.74 0 130.09-7.45 129.74-25.4 148.34-25.4 148.79-24.85 148.29-19.35 141.69-19.6 137.24-19.6 137.14-15.7 141.44-15.7 145.79-15.85 146.19-15.3 145.74-9.75 140.94-9.9 136.99-9.85 136.94-8.2 137.04-5.8 141.24-5.8ZM169.78-9.95Q172.13-6.4 175.84-1.75L175.84-1.75 175.74-0.9Q171.88 0.25 168.44 0.45L168.44 0.45 167.38-0.3Q165.28-4.15 163.53-7.75L163.53-7.75 160.23-7.75 160.53 0 153.03 0 153.38-7.45 153.03-25.4 165.09-25.45Q169.53-25.45 171.94-23.43 174.34-21.4 174.34-17.65L174.34-17.65Q174.34-15.35 173.13-13.35 171.94-11.35 169.78-9.95L169.78-9.95ZM166.38-16.9Q166.38-18.55 165.46-19.3 164.53-20.05 162.48-20.15L162.48-20.15 160.53-20 160.38-13.3 163.73-13.1Q165.13-13.6 165.76-14.53 166.38-15.45 166.38-16.9L166.38-16.9Z" opacity="1" transform="matrix(1,0,0,1,0,0)" fill="#ffffff" class="wordmark-text-0" data-fill-palette-color="quaternary" id="text-0"></path></svg></g></svg></g></svg></g></svg></g><g transform="matrix(1,0,0,1,78.58000598764377,0)"><svg viewBox="0 0 55.99842925186957 55.99897431297403" height="55.99897431297403" width="55.99842925186957"><g><svg xmlns:x="http://ns.adobe.com/Extensibility/1.0/" xmlns:i="http://ns.adobe.com/AdobeIllustrator/10.0/" xmlns:graph="http://ns.adobe.com/Graphs/1.0/" xmlns="http://www.w3.org/2000/svg" xmlns:xlink="http://www.w3.org/1999/xlink" version="1.1" x="0" y="0" viewBox="6.999697971187902 6.9992470059385195 50.00026631611808 50.00075299406148" enable-background="new 0 0 64 64" xml:space="preserve" height="55.99897431297403" width="55.99842925186957" class="icon-icon-0" data-fill-palette-color="quaternary" id="icon-0"><g fill="#ea3c12" data-fill-palette-color="quaternary"><g fill="#ea3c12" data-fill-palette-color="quaternary"><path d="M31.078 52.385C31.027 52.265 31 52.134 31 52v-8.697L23.202 55h10.384l-2.292-2.292C31.202 52.616 31.128 52.507 31.078 52.385z" fill="#ffffff" data-fill-palette-color="quaternary"></path><path d="M56.832 55.445L33.202 20l7.63-11.445c0.307-0.459 0.183-1.081-0.277-1.387-0.461-0.308-1.082-0.182-1.387 0.277L32 18.197 24.832 7.445c-0.307-0.459-0.927-0.585-1.387-0.277-0.459 0.306-0.583 0.927-0.277 1.387L30.798 20 7.168 55.445c-0.205 0.307-0.224 0.701-0.05 1.026C7.292 56.797 7.631 57 8 57h13.333c-0.369 0-0.708-0.203-0.882-0.528-0.174-0.325-0.155-0.72 0.05-1.026l10.667-16c0.013-0.02 0.038-0.026 0.052-0.045C31.403 39.163 31.677 39 32 39s0.597 0.163 0.78 0.4c0.015 0.019 0.039 0.025 0.052 0.045l10.667 16c0.204 0.307 0.224 0.701 0.05 1.026S43.036 57 42.667 57H56c0.369 0 0.708-0.203 0.882-0.528S57.036 55.752 56.832 55.445z" fill="#ffffff" data-fill-palette-color="quaternary"></path><path d="M33 51h3c0.553 0 1 0.447 1 1v3h3.799L33 43.303V51z" fill="#ffffff" data-fill-palette-color="quaternary"></path><polygon points="35,53.586 35,53 34.414,53   " fill="#ffffff" data-fill-palette-color="quaternary"></polygon></g></g></svg><g></g></g></svg></g><g></g></svg></g></svg></g></svg></g></svg></g><defs></defs></svg><rect width="342.85155851775386" height="342.85155851775386" fill="none" stroke="none" visibility="hidden"></rect></g></svg></g></svg>