<svg xmlns="http://www.w3.org/2000/svg" version="1.1" xmlns:xlink="http://www.w3.org/1999/xlink" xmlns:svgjs="http://svgjs.dev/svgjs" width="128" height="128" viewBox="0 0 128 128"><g transform="matrix(0.8046875,0,0,0.8046875,12.41184074821259,12.814873242367177)"><svg viewBox="0 0 98 98" data-background-color="#ea3c12" preserveAspectRatio="xMidYMid meet" height="127" width="128" xmlns="http://www.w3.org/2000/svg" xmlns:xlink="http://www.w3.org/1999/xlink"><g id="tight-bounds" transform="matrix(1,0,0,1,0.08387967645792571,0.08387967645792571)"><svg viewBox="0 0 97.83224064708415 97.83224064708415" height="97.83224064708415" width="97.83224064708415"><g><svg></svg></g><g><svg viewBox="0 0 97.83224064708415 97.83224064708415" height="97.83224064708415" width="97.83224064708415"><g><path d="M0 48.916c0-27.016 21.9-48.916 48.916-48.916 27.016 0 48.916 21.9 48.916 48.916 0 27.016-21.9 48.916-48.916 48.916-27.016 0-48.916-21.9-48.916-48.916zM48.916 93.244c24.481 0 44.328-19.846 44.328-44.328 0-24.481-19.846-44.328-44.328-44.327-24.481 0-44.328 19.846-44.327 44.327 0 24.481 19.846 44.328 44.327 44.328z" data-fill-palette-color="tertiary" fill="#ffffff" stroke="transparent"></path><ellipse rx="46.95947551060039" ry="46.95947551060039" cx="48.916120323542074" cy="48.916120323542074" fill="#ffffff" stroke="transparent" stroke-width="0" fill-opacity="1" data-fill-palette-color="tertiary"></ellipse></g><g transform="matrix(1,0,0,1,23.475641540108274,23.47539391502934)"><svg viewBox="0 0 50.8809575668676 50.88145281702547" height="50.88145281702547" width="50.8809575668676"><g><svg viewBox="0 0 50.8809575668676 50.88145281702547" height="50.88145281702547" width="50.8809575668676"><g><svg viewBox="0 0 50.8809575668676 50.88145281702547" height="50.88145281702547" width="50.8809575668676"><g id="textblocktransform"><svg viewBox="0 0 50.8809575668676 50.88145281702547" height="50.88145281702547" width="50.8809575668676" id="textblock"><g><svg viewBox="0 0 50.8809575668676 50.88145281702547" height="50.88145281702547" width="50.8809575668676"><g><svg viewBox="0 0 50.8809575668676 50.88145281702547" height="50.88145281702547" width="50.8809575668676"><g><svg xmlns:x="http://ns.adobe.com/Extensibility/1.0/" xmlns:i="http://ns.adobe.com/AdobeIllustrator/10.0/" xmlns:graph="http://ns.adobe.com/Graphs/1.0/" xmlns="http://www.w3.org/2000/svg" xmlns:xlink="http://www.w3.org/1999/xlink" version="1.1" x="0" y="0" viewBox="6.999697971187902 6.9992470059385195 50.00026631611808 50.00075299406148" enable-background="new 0 0 64 64" xml:space="preserve" height="50.88145281702547" width="50.8809575668676" class="icon-icon-0" data-fill-palette-color="quaternary" id="icon-0"><g fill="#ea3c12" data-fill-palette-color="quaternary"><g fill="#ea3c12" data-fill-palette-color="quaternary"><path d="M31.078 52.385C31.027 52.265 31 52.134 31 52v-8.697L23.202 55h10.384l-2.292-2.292C31.202 52.616 31.128 52.507 31.078 52.385z" fill="#ea3c12" data-fill-palette-color="quaternary"></path><path d="M56.832 55.445L33.202 20l7.63-11.445c0.307-0.459 0.183-1.081-0.277-1.387-0.461-0.308-1.082-0.182-1.387 0.277L32 18.197 24.832 7.445c-0.307-0.459-0.927-0.585-1.387-0.277-0.459 0.306-0.583 0.927-0.277 1.387L30.798 20 7.168 55.445c-0.205 0.307-0.224 0.701-0.05 1.026C7.292 56.797 7.631 57 8 57h13.333c-0.369 0-0.708-0.203-0.882-0.528-0.174-0.325-0.155-0.72 0.05-1.026l10.667-16c0.013-0.02 0.038-0.026 0.052-0.045C31.403 39.163 31.677 39 32 39s0.597 0.163 0.78 0.4c0.015 0.019 0.039 0.025 0.052 0.045l10.667 16c0.204 0.307 0.224 0.701 0.05 1.026S43.036 57 42.667 57H56c0.369 0 0.708-0.203 0.882-0.528S57.036 55.752 56.832 55.445z" fill="#ea3c12" data-fill-palette-color="quaternary"></path><path d="M33 51h3c0.553 0 1 0.447 1 1v3h3.799L33 43.303V51z" fill="#ea3c12" data-fill-palette-color="quaternary"></path><polygon points="35,53.586 35,53 34.414,53   " fill="#ea3c12" data-fill-palette-color="quaternary"></polygon></g></g></svg><g></g></g></svg></g></svg></g></svg></g></svg></g><g></g></svg></g></svg></g></svg></g><defs></defs></svg><rect width="97.83224064708415" height="97.83224064708415" fill="none" stroke="none" visibility="hidden"></rect></g></svg></g></svg>